<svg xmlns="http://www.w3.org/2000/svg" viewBox="0 0 160 100" width="1280" height="800" fill="none" stroke="#e9e9ed" stroke-width="1.8" stroke-linecap="round" stroke-linejoin="round">
            <rect x="20" y="6" width="116" height="62" rx="4"></rect>
            <rect x="27" y="12" width="102" height="46" rx="2" opacity=".3"></rect>
            <path d="M34 52V20" opacity=".5"></path>
            <path d="M34 52h88" opacity=".5"></path>
            <path d="M37 48c14 0 20-6 30-11 8-4 16-6 32-8" opacity=".3"></path>
            <path d="M37 46C48 46 52 34 64 28s26-9 42-11" stroke="#9184d9"></path>
            <circle cx="37" cy="46" r="2" stroke="#9184d9" fill="#161826"></circle>
            <circle cx="64" cy="28" r="2" stroke="#9184d9" fill="#161826"></circle>
            <circle cx="106" cy="17" r="2" stroke="#9184d9" fill="#161826"></circle>
            <path d="M78 68v9M64 77h28" opacity=".8"></path>
            <rect x="30" y="85" width="84" height="12" rx="2.5"></rect>
            <path d="M36 91h18M58 91h12M74 91h32" opacity=".45"></path>
            <rect x="122" y="83" width="14" height="16" rx="7"></rect>
            <path d="M129 83v5" opacity=".5"></path>
          </svg>